# Blender v3.1.2 OBJ File: 'Furniture.blend'
# www.blender.org
mtllib Room.mtl
o Room_Cube.018
v 0.000000 0.000000 2.743200
v 0.000000 2.380000 2.743200
v 0.000000 0.000000 -0.763813
v 0.000000 2.380000 -0.763813
v 3.048000 0.000000 2.743200
v 3.048000 2.380000 2.743200
v 3.048000 0.000000 -0.763813
v 3.048000 2.380000 -0.763813
v 7.620000 0.604429 2.138771
v 7.620000 1.775571 2.138771
v 7.620000 0.604429 0.604429
v 7.620000 1.775571 0.604429
v 3.048000 0.000000 5.181600
v 3.048000 2.380000 5.181600
v 7.620000 0.000000 5.181600
v 7.620000 2.380000 5.181600
v 7.620000 2.380000 -0.763813
v 7.620000 0.000000 -0.763813
v 7.620000 0.000000 2.743200
v 7.620000 2.380000 2.743200
v 1.016000 0.000000 2.743200
v 2.032000 0.000000 2.743200
v 2.032000 1.800000 2.743200
v 1.016000 1.800000 2.743200
v 1.016000 0.000000 2.903084
v 2.032000 0.000000 2.903084
v 2.032000 1.800000 2.903084
v 1.016000 1.800000 2.903084
v 2.932456 0.000000 2.903084
v 2.932456 0.000000 5.090832
v -0.067544 0.000000 5.090832
v 0.016000 0.000000 2.903084
v -0.067544 2.380000 5.090832
v 0.016000 2.380000 2.903084
v 2.932456 2.380000 2.903084
v 2.932456 2.380000 5.090832
v 0.000000 0.000000 1.242620
v 0.000000 0.000000 1.384000
v 0.000000 0.000000 2.400000
v 0.000000 1.800000 2.400000
v 0.000000 1.800000 1.384000
v 0.000000 0.000000 1.104543
v 0.000000 2.380000 1.242600
v 0.000000 2.380000 1.104500
v 0.862555 0.000000 1.242620
v 0.862555 0.000000 1.104543
v 0.862555 2.380000 1.242600
v 0.862555 2.380000 1.104500
vt 0.000000 0.000000
vt 0.208333 0.750000
vt 0.125000 0.750000
vt 0.875000 0.750000
vt 0.375000 0.250000
vt 0.375000 0.500000
vt 0.625000 0.500000
vt 0.625000 0.250000
vt 0.625000 0.750000
vt 0.625000 0.500000
vt 0.625000 0.750000
vt 0.875000 0.666667
vt 0.875000 0.583333
vt 0.875000 0.500000
vt 0.375000 0.500000
vt 0.375000 0.750000
vt 0.625000 0.750000
vt 0.375000 0.750000
vt 0.625000 0.750000
vt 0.375000 0.750000
vt 0.375000 0.750000
vt 0.438490 0.555084
vt 0.561510 0.555084
vt 0.438490 0.694916
vt 0.561510 0.694916
vt 0.000000 0.000000
vt 0.291667 0.750000
vt 0.000000 0.000000
vt 0.208333 0.750000
vt 0.000000 0.000000
vt 0.291667 0.750000
vt 0.000000 0.000000
vt 0.000000 0.000000
vt 0.000000 0.000000
vt 0.000000 0.000000
vt 0.000000 0.000000
vt 0.000000 0.000000
vt 0.000000 0.000000
vt 0.000000 0.000000
vt 0.000000 0.000000
vt 0.000000 0.000000
vt 0.000000 0.000000
vt 0.000000 0.000000
vt 0.125000 0.531250
vt 0.875000 0.583333
vt 0.875000 0.666667
vt 0.125000 0.562500
vt 0.000000 0.000000
vt 0.000000 0.000000
vt 0.000000 0.000000
vt 0.000000 0.000000
vt 0.125000 0.500000
vt 0.000000 0.000000
vt 0.125000 0.625000
vt 0.000000 0.000000
vt 0.125000 0.687500
vt 0.125000 0.531250
vt 0.125000 0.562500
vn -0.0000 0.0000 -1.0000
vn 0.0000 0.0000 1.0000
vn 0.0000 -1.0000 0.0000
vn 1.0000 0.0000 0.0000
vn -1.0000 0.0000 0.0000
vn 0.9993 0.0000 0.0382
vn 0.0000 1.0000 0.0000
usemtl Walls
s off
f 24/1/1 21/2/1 1/3/1 2/4/1
f 3/5/2 7/6/2 8/7/2 4/8/2
f 6/9/3 8/7/3 17/10/3 20/11/3
f 8/7/3 6/9/3 2/4/3 43/12/3 44/13/3 4/14/3
f 8/7/2 7/6/2 18/15/2 17/10/2
f 5/16/4 6/9/4 14/17/4 13/18/4
f 13/18/1 14/17/1 16/19/1 15/20/1
f 6/9/3 20/11/3 16/19/3 14/17/3
f 20/11/5 19/21/5 15/20/5 16/19/5
f 11/22/5 12/23/5 17/10/5 18/15/5
f 9/24/5 11/22/5 18/15/5 19/21/5
f 12/23/5 10/25/5 20/11/5 17/10/5
f 10/25/5 9/24/5 19/21/5 20/11/5
f 2/4/1 6/9/1 23/26/1 24/1/1
f 5/16/1 22/27/1 23/26/1 6/9/1
f 21/2/4 24/1/4 28/28/4 25/29/4
f 24/1/3 23/26/3 27/30/3 28/28/3
f 23/26/5 22/27/5 26/31/5 27/30/5
f 31/32/6 32/33/6 34/34/6 33/35/6
f 29/36/5 30/37/5 36/38/5 35/39/5
f 30/37/1 31/32/1 33/35/1 36/38/1
f 27/30/2 35/39/2 34/34/2 28/28/2
f 26/31/2 29/36/2 35/39/2 27/30/2
f 28/28/2 34/34/2 32/33/2 25/29/2
f 33/35/3 34/34/3 35/39/3 36/38/3
f 43/40/2 37/41/2 45/42/2 47/43/2
f 46/44/4 48/45/4 47/46/4 45/47/4
f 44/13/7 43/12/7 47/46/7 48/45/7
f 42/48/1 44/49/1 48/50/1 46/51/1
f 44/49/4 42/48/4 3/52/4 4/8/4
f 37/41/4 43/40/4 41/53/4 38/54/4
f 41/53/4 43/40/4 2/4/4 40/55/4
f 1/3/4 39/56/4 40/55/4 2/4/4
usemtl Couch-Legs
f 3/52/7 42/57/7 37/58/7 38/54/7 39/56/7 1/3/7 21/2/7 22/27/7 5/16/7 7/6/7
f 7/6/7 5/16/7 19/21/7 18/15/7
f 19/21/7 5/16/7 13/18/7 15/20/7
f 22/27/7 21/2/7 25/29/7 26/31/7
f 32/33/7 31/32/7 30/37/7 29/36/7 26/31/7 25/29/7
f 37/58/3 42/57/3 46/44/3 45/47/3
